<svg width="512" height="512" viewBox="0 0 512 512" fill="none" xmlns="http://www.w3.org/2000/svg">
  <rect width="512" height="512" rx="128" fill="#22c55e"/>
  <path d="M256 128c-70.7 0-128 57.3-128 128s57.3 128 128 128 128-57.3 128-128-57.3-128-128-128zm0 32c17.7 0 32 14.3 32 32s-14.3 32-32 32-32-14.3-32-32 14.3-32 32-32z" fill="white"/>
  <rect x="140" y="200" width="80" height="112" rx="16" fill="white"/>
  <rect x="292" y="200" width="80" height="112" rx="16" fill="white"/>
  <rect x="220" y="216" width="72" height="16" rx="8" fill="white"/>
  <rect x="220" y="280" width="72" height="16" rx="8" fill="white"/>
</svg>
